<?xml version="1.0" encoding="UTF-8"?>
<svg version="1.1" xmlns="http://www.w3.org/2000/svg" width="471" height="530">
<path d="M0 0 C3.55423623 2.52897578 4.63748421 3.91245262 6 8 C6.14852074 9.63337489 6.24776979 11.27147966 6.31640625 12.91015625 C6.37924805 14.39805664 6.37924805 14.39805664 6.44335938 15.91601562 C6.48267578 16.95435547 6.52199219 17.99269531 6.5625 19.0625 C6.60568359 20.04283203 6.64886719 21.02316406 6.69335938 22.03320312 C6.93204126 27.97751863 7.01828434 33.91084435 6.99609375 39.859375 C6.94797943 53.63701794 7.25926748 67.41251923 7.5 81.1875 C7.57227269 85.3346452 7.64405329 89.48179721 7.71398926 93.62898254 C7.75729322 96.18913312 7.80171911 98.74926508 7.84753418 101.30937195 C7.95127782 107.43455203 8.00436277 113.55480115 7.984375 119.6809082 C7.97482747 125.96838547 8.17120231 132.22082628 8.46875 138.5 C8.93620114 149.49962017 9.15417226 160.49236826 9.28125 171.5 C9.29557068 172.73609512 9.29557068 172.73609512 9.31018066 173.99716187 C9.36858287 179.13786108 9.4221184 184.27860322 9.47393799 189.41937256 C9.55100515 197.05046528 9.6328485 204.68150179 9.71875 212.3125 C9.73310939 213.60413496 9.73310939 213.60413496 9.74775887 214.92186356 C9.91145492 229.37446641 10.18879824 243.82325636 10.49609375 258.2734375 C11.03221917 283.59666416 11.30875384 308.91981901 11.53222656 334.24749756 C11.57327968 338.82765185 11.61694337 343.40777979 11.66066074 347.98790932 C11.71359143 353.54661768 11.76506082 359.1053393 11.81640625 364.6640625 C11.82596407 365.68618458 11.83552189 366.70830666 11.84536934 367.76140213 C11.87240475 370.68158578 11.89844307 373.60177636 11.92407227 376.52197266 C11.93244393 377.43143961 11.9408156 378.34090656 11.94944096 379.27793312 C11.98426738 383.40538423 12.00398375 387.53133578 11.9760437 391.65887451 C11.93233207 398.21101601 12.0600554 404.51227925 13 411 C13.05481669 413.47728007 13.06296435 415.95591024 13.03125 418.43359375 C12.97737138 425.55470126 13.0646307 432.66559116 13.21875 439.78515625 C13.24103165 440.84047546 13.26331329 441.89579468 13.28627014 442.98309326 C13.33312416 445.19753498 13.38021311 447.41197174 13.42752075 449.62640381 C13.99270062 476.42045107 14.11981959 503.20096712 14 530 C-31.93720647 530.53139676 -31.93720647 530.53139676 -39 527 C-39 373.88 -39 220.76 -39 63 C-42.63 64.32 -46.26 65.64 -50 67 C-51.94928638 67.61164731 -53.90604125 68.20108801 -55.875 68.74609375 C-56.88175781 69.02646484 -57.88851562 69.30683594 -58.92578125 69.59570312 C-59.94027344 69.87349609 -60.95476562 70.15128906 -62 70.4375 C-63.47533203 70.84838867 -63.47533203 70.84838867 -64.98046875 71.26757812 C-74.62978112 73.93978947 -84.31567729 76.45149402 -94 79 C-94.33 222.22 -94.66 365.44 -95 513 C-101.76235201 511.87294133 -101.76235201 511.87294133 -105.21484375 510.25 C-105.97611572 509.89357422 -106.7373877 509.53714844 -107.52172852 509.16992188 C-108.31893311 508.78384766 -109.1161377 508.39777344 -109.9375 508 C-111.18841431 507.39768555 -111.18841431 507.39768555 -112.46459961 506.78320312 C-142.31019979 492.18075701 -142.31019979 492.18075701 -147.37614963 479.89846855 C-148.34292024 476.9564432 -148.37216248 474.22600391 -148.36914349 471.14159489 C-148.37433579 470.15697628 -148.37433579 470.15697628 -148.37963298 469.15246639 C-148.38754928 466.96144173 -148.37413635 464.77108369 -148.36076355 462.58009338 C-148.36207235 460.99012709 -148.36470015 459.40016142 -148.36853105 457.8101992 C-148.37523329 453.44772716 -148.36324695 449.08547644 -148.34819686 444.72303259 C-148.33523701 440.01622699 -148.33962593 435.30943378 -148.34190369 430.60261536 C-148.34347645 422.44993192 -148.33406689 414.29732054 -148.31719017 406.14465523 C-148.2928052 394.35729259 -148.28499541 382.56996478 -148.2812262 370.78257965 C-148.27466093 351.65817463 -148.2546977 332.533808 -148.22631836 313.40942383 C-148.19877975 294.83227734 -148.17754519 276.25514129 -148.16479492 257.67797852 C-148.16400675 256.53281128 -148.16321858 255.38764404 -148.16240653 254.20777477 C-148.1584914 248.46278591 -148.15470028 242.71779698 -148.15097082 236.972808 C-148.11987256 189.3151788 -148.06703468 141.65759127 -148 94 C-148.74748064 94.27408093 -149.49496128 94.54816187 -150.26509285 94.83054829 C-151.24980001 95.19038901 -152.23450718 95.55022974 -153.24905396 95.92097473 C-154.2234096 96.27755567 -155.19776524 96.6341366 -156.2016468 97.00152302 C-159.66822752 98.23842944 -163.14363021 99.30156554 -166.6796875 100.32421875 C-167.3403421 100.51595169 -168.0009967 100.70768463 -168.68167114 100.90522766 C-170.05386709 101.30261556 -171.42657949 101.69822453 -172.79980469 102.09204102 C-174.89390636 102.69292501 -176.9860977 103.30014067 -179.078125 103.90820312 C-184.36854576 105.437035 -189.59424875 106.91884975 -195 108 C-195.33 218.55 -195.66 329.1 -196 443 C-199 443 -199 443 -200.59570312 441.77416992 C-205.01152963 437.23873745 -208.84175097 432.47478171 -212.5 427.3125 C-213.06750977 426.51577881 -213.63501953 425.71905762 -214.21972656 424.89819336 C-218.5286232 418.78774284 -222.54270225 412.63866093 -226 406 C-226.50128418 405.05012207 -226.50128418 405.05012207 -227.01269531 404.08105469 C-243.10135976 373.21679168 -248.33042151 342.92381412 -248.22705078 308.58203125 C-248.22648575 305.93930656 -248.2267173 303.29659297 -248.22793579 300.65386963 C-248.22897761 294.99449757 -248.22277525 289.33517211 -248.21146011 283.67581177 C-248.1951117 275.49362909 -248.18998762 267.31146863 -248.18748413 259.12927139 C-248.18312157 245.84984007 -248.16985181 232.57043352 -248.15087891 219.29101562 C-248.13248266 206.40169396 -248.11834455 193.51237905 -248.10986328 180.62304688 C-248.10933783 179.82673564 -248.10881239 179.0304244 -248.10827102 178.20998251 C-248.10566069 174.21458161 -248.10313333 170.21918066 -248.10064721 166.22377968 C-248.07995959 133.14916844 -248.0447736 100.07458755 -248 67 C-244.21664123 65.890231 -240.43259735 64.78281532 -236.6484375 63.67578125 C-235.06180298 63.21032898 -235.06180298 63.21032898 -233.44311523 62.73547363 C-226.85642967 60.81003753 -220.25557607 58.9557781 -213.625 57.1875 C-203.2199118 54.38894348 -192.89601449 51.33480818 -182.56665039 48.27145386 C-173.55446892 45.60119158 -164.53491793 43.01315694 -155.42626953 40.68896484 C-149.12216836 39.06889249 -142.90607603 37.1974536 -136.68139648 35.29760742 C-130.5460538 33.43559053 -124.38051855 31.72164929 -118.1875 30.0625 C-109.31828772 27.68423011 -100.53051062 25.08687823 -91.76245117 22.35961914 C-87.26480175 20.96577118 -82.78264834 19.66603807 -78.20361328 18.55908203 C-73.14247888 17.27501403 -68.1403659 15.76303098 -63.125 14.3125 C-52.31997225 11.20136639 -41.49015024 8.20629867 -30.61572266 5.34692383 C-26.07714954 4.14416178 -21.61125328 2.89796764 -17.18359375 1.33203125 C-11.48885533 -0.61146713 -5.95284842 -0.8721243 0 0 Z " fill="#E7B321" transform="translate(248,0)"/>
<path d="M0 0 C4.91033036 0.46580492 9.61971668 0.97211198 14.35546875 2.41796875 C15.76602539 2.84045898 15.76602539 2.84045898 17.20507812 3.27148438 C18.18927734 3.57376953 19.17347656 3.87605469 20.1875 4.1875 C22.32632426 4.82848918 24.46565901 5.46777711 26.60546875 6.10546875 C27.67716309 6.42563965 28.74885742 6.74581055 29.85302734 7.07568359 C34.54975476 8.45518786 39.27225619 9.73169635 44 11 C55.71790709 14.16021691 67.35766698 17.57357559 79 21 C98.90375149 26.84869578 118.85724241 32.49531513 138.86352539 37.9831543 C143.73115913 39.32126363 148.59546516 40.67123767 153.45947266 42.02246094 C156.92144631 42.97831134 160.3881651 43.91526534 163.85546875 44.8515625 C165.98723496 45.44178523 168.11875819 46.03288651 170.25 46.625 C171.68581421 47.00398438 171.68581421 47.00398438 173.15063477 47.390625 C180.82318467 49.55641294 187.33392786 52.80071343 192.5 59 C202.1595479 78.3190958 196.18206729 113.40973357 196.20018864 134.63470268 C196.20315077 137.93496232 196.20726061 141.23521872 196.21169281 144.53547668 C196.22530351 154.91409138 196.23500468 165.29269841 196.2388947 175.67132139 C196.24337779 187.55715704 196.26096473 199.44287784 196.2898953 211.32867861 C196.3116325 220.58721279 196.32160514 229.84571489 196.32293582 239.10427427 C196.32397407 244.60331914 196.32967098 250.10225511 196.34775543 255.60127258 C196.48147923 298.64223517 196.48147923 298.64223517 193.34116364 316.96990967 C192.86861945 319.78177846 192.53060154 322.60735862 192.1875 325.4375 C186.75888493 359.04107593 175.54559342 394.83951042 156.67578125 423.3828125 C153.86099727 427.77886207 151.43620844 432.3863745 149 437 C148.34 437 147.68 437 147 437 C146.75636719 437.70640625 146.51273438 438.4128125 146.26171875 439.140625 C144.81700028 442.41472383 142.99253155 444.91333244 140.8125 447.75 C140.01328125 448.7915625 139.2140625 449.833125 138.390625 450.90625 C137.60171875 451.9271875 136.8128125 452.948125 136 454 C135.31421875 454.9178125 134.6284375 455.835625 133.921875 456.78125 C133.00148438 458.00328125 133.00148438 458.00328125 132.0625 459.25 C131.24458984 460.34054687 131.24458984 460.34054687 130.41015625 461.453125 C129.94480469 461.96359375 129.47945312 462.4740625 129 463 C128.34 463 127.68 463 127 463 C126.72937744 463.59369385 126.45875488 464.1873877 126.17993164 464.79907227 C116.88206522 482.14239232 93.91113324 495.23628272 77 504 C75.81625364 504.63122431 74.63265569 505.26272703 73.44921875 505.89453125 C55.3159701 515.32053479 36.21198005 520.60598972 16.1875 524.3125 C14.79990479 524.56990967 14.79990479 524.56990967 13.38427734 524.83251953 C12.07064209 525.06430908 12.07064209 525.06430908 10.73046875 525.30078125 C9.96114014 525.43653564 9.19181152 525.57229004 8.39916992 525.7121582 C5.58371057 526.04994456 2.8329162 526.04577882 0 526 C-0.07482575 521.6075369 -0.12891683 517.21542328 -0.16479492 512.82250977 C-0.17977042 511.33188402 -0.20015819 509.84130149 -0.22631836 508.35083008 C-0.44449056 495.58989504 0.74227354 485.02086383 9.5625 475.125 C12 473 12 473 15 472 C15 471.34 15 470.68 15 470 C15.64437012 469.72849121 16.28874023 469.45698242 16.95263672 469.17724609 C19.93006918 467.91750162 22.90249621 466.64632821 25.875 465.375 C26.88820313 464.94832031 27.90140625 464.52164062 28.9453125 464.08203125 C34.82391337 461.55724754 40.32166943 458.78940545 45.73828125 455.37988281 C48.14420036 453.91202283 50.6067034 452.63866498 53.125 451.375 C66.1247833 444.32427007 77.54248009 434.36819812 88 424 C88.93328125 423.07960938 89.8665625 422.15921875 90.828125 421.2109375 C104.82574298 406.69340799 114.19220055 388.97914109 123 371 C123.54527344 369.89269531 124.09054687 368.78539062 124.65234375 367.64453125 C135.8709282 342.80594012 138.12661647 315.21749434 138.20532227 288.38208008 C138.21491436 286.30166434 138.22492519 284.2212505 138.23532104 282.14083862 C138.26223205 276.51978065 138.28331589 270.8987144 138.30332303 265.27762818 C138.32526826 259.39329684 138.35261499 253.50899061 138.37937927 247.62467957 C138.42919116 236.49382115 138.47417244 225.36294871 138.51740164 214.232063 C138.56687263 201.55488617 138.62175404 188.87773455 138.67708123 176.20058215 C138.79072457 150.13374498 138.89760169 124.0668836 139 98 C137.89408257 97.69881256 137.89408257 97.69881256 136.76582336 97.39154053 C135.78905136 97.12536926 134.81227936 96.859198 133.8059082 96.58496094 C132.35967827 96.190961 132.35967827 96.190961 130.88423157 95.78900146 C118.24389405 92.33114984 105.70252331 88.63095004 93.23095703 84.60644531 C86.18228337 82.34439964 79.09239091 80.27489734 71.96704102 78.26953125 C64.46205514 76.15106982 57.00101602 73.90169815 49.54663086 71.61206055 C44.84472052 70.16817941 40.13985912 68.74060343 35.41796875 67.36328125 C34.52601807 67.10160156 33.63406738 66.83992188 32.71508789 66.5703125 C31.05559263 66.08477444 29.3947296 65.6038726 27.73217773 65.12890625 C18.3017689 62.3582769 7.81959895 58.90690609 2.77862549 49.79141235 C0.24909126 43.63032746 -0.54845068 38.4645392 -0.390625 31.8359375 C-0.38496521 30.91785309 -0.37930542 29.99976868 -0.37347412 29.05386353 C-0.35132475 26.1603477 -0.30117171 23.26813289 -0.25 20.375 C-0.22990718 18.39715347 -0.21166133 16.41928727 -0.1953125 14.44140625 C-0.15153075 9.62711322 -0.08265631 4.81377611 0 0 Z " fill="#E5B220" transform="translate(275,4)"/>
<path d="M0 0 C8.89156627 1.11144578 8.89156627 1.11144578 13.5 2.8125 C18.06715837 4.40503343 22.60803791 5.68846786 27.3125 6.8125 C33.91727617 8.39597946 40.38961284 10.29766524 46.875 12.3125 C54.97888004 14.82454213 63.10923749 17.14745891 71.3125 19.3125 C82.11181028 22.17038149 92.84367851 25.23136504 103.5625 28.375 C104.32744781 28.59813873 105.09239563 28.82127747 105.88052368 29.05117798 C108.04774694 29.68410664 110.21354903 30.32165783 112.37890625 30.9609375 C113.6326001 31.33009277 114.88629395 31.69924805 116.17797852 32.07958984 C119 33 119 33 120 34 C120.09326716 35.56547048 120.11745582 37.13512772 120.11352539 38.70336914 C120.11341209 40.20481224 120.11341209 40.20481224 120.11329651 41.73658752 C120.10813522 42.8251152 120.10297394 43.91364288 120.09765625 45.03515625 C120.0962413 46.14354355 120.09482635 47.25193085 120.09336853 48.39390564 C120.08775033 51.95013069 120.07519475 55.50629383 120.0625 59.0625 C120.05748734 61.46679597 120.05292403 63.87109292 120.04882812 66.27539062 C120.03777499 72.18361504 120.02101917 78.0918031 120 84 C109.17319327 82.26061138 98.96670365 78.30496847 88.66772461 74.64477539 C82.44104419 72.45241477 76.17254905 70.52097509 69.82592773 68.70996094 C64.93110991 67.30423356 60.15452595 65.70163748 55.39453125 63.89453125 C52.62183731 62.85872878 49.80796129 61.9359871 47 61 C47 72.55 47 84.1 47 96 C52.135625 97.3303125 52.135625 97.3303125 57.375 98.6875 C65.1437389 100.70816924 72.89424587 102.77807194 80.62060547 104.95483398 C85.64134863 106.36213813 90.67481162 107.71826856 95.71484375 109.0546875 C96.39462784 109.23506561 97.07441193 109.41544373 97.77479553 109.60128784 C101.20654217 110.51127636 104.63905638 111.41825067 108.07250977 112.32177734 C109.95474243 112.81991943 109.95474243 112.81991943 111.875 113.328125 C113.00679688 113.6262207 114.13859375 113.92431641 115.3046875 114.23144531 C118 115 118 115 120 116 C120 128.54 120 141.08 120 154 C109.87557972 152.87506441 109.87557972 152.87506441 106.07299805 151.86425781 C105.21727707 151.64022278 104.36155609 151.41618774 103.47990417 151.18536377 C102.58290298 150.94372498 101.68590179 150.70208618 100.76171875 150.453125 C99.80086868 150.20004578 98.84001862 149.94696655 97.85005188 149.68621826 C94.79424381 148.88014204 91.74081979 148.06544533 88.6875 147.25 C85.67300985 146.45062028 82.65803369 145.65310973 79.64277649 144.85662842 C77.77747111 144.36329798 75.91265186 143.86812268 74.04850769 143.37042236 C67.58160518 141.65168851 61.09549846 140.01579602 54.60310364 138.39666748 C53.67784834 138.16565023 52.75259305 137.93463299 51.79929972 137.69661522 C49.53293694 137.13079385 47.26650211 136.56526294 45 136 C45.00276538 137.03698973 45.00553076 138.07397945 45.00837994 139.14239311 C45.07501793 164.39011548 45.12429598 189.63782643 45.15543652 214.88561821 C45.17089663 227.09532677 45.19196986 239.30497719 45.22631836 251.51464844 C45.25624683 262.15824108 45.27558122 272.8017916 45.28226548 283.44542515 C45.28617187 289.07964551 45.29533478 294.7137454 45.31719017 300.34792709 C45.33760969 305.65513949 45.34382272 310.96218221 45.33932304 316.26943016 C45.3401458 318.21320837 45.34607874 320.15699248 45.35761642 322.10073662 C45.48559085 344.78015424 45.48559085 344.78015424 38.9375 354.125 C38.43089844 354.87007813 37.92429687 355.61515625 37.40234375 356.3828125 C36.93957031 356.91648437 36.47679687 357.45015625 36 358 C35.34 358 34.68 358 34 358 C34 358.66 34 359.32 34 360 C30.8726852 362.6012918 27.38852379 364.75510299 24 367 C23.4328125 367.37672852 22.865625 367.75345703 22.28125 368.14160156 C4.36101906 380 4.36101906 380 0 380 C0 254.6 0 129.2 0 0 Z " fill="#E4B121" transform="translate(275,83)"/>
<path d="M0 0 C2.46450771 0.35163948 4.87269239 0.76825102 7.3125 1.25 C8.04380127 1.39058838 8.77510254 1.53117676 9.52856445 1.67602539 C14.57172308 2.66521574 19.52925851 3.87096161 24.5 5.17578125 C30.30901034 6.54375132 36.18320766 7.58306627 42.05541992 8.64233398 C42.93818604 8.80419189 43.82095215 8.9660498 44.73046875 9.1328125 C45.52864014 9.27605957 46.32681152 9.41930664 47.14916992 9.56689453 C49 10 49 10 50 11 C50.11483762 12.79058586 50.15965363 14.58570209 50.17700195 16.37988281 C50.19625481 18.10999603 50.19625481 18.10999603 50.21589661 19.87506104 C50.22328354 21.13832214 50.23067047 22.40158325 50.23828125 23.703125 C50.246353 25.00586365 50.25442474 26.30860229 50.26274109 27.65081787 C50.27781279 30.42850617 50.2876191 33.20616865 50.29516602 35.98388672 C50.30390524 38.79238404 50.32447269 41.60036686 50.35668945 44.40869141 C50.6061676 66.63354086 48.98017375 87.06119547 41 108 C40.41412109 109.56621094 40.41412109 109.56621094 39.81640625 111.1640625 C36.90440207 118.55386982 33.10547744 125.21703728 29 132 C28.34967101 133.18504394 27.70303145 134.37213182 27.0625 135.5625 C24.1712263 140.63801103 20.74200181 145.52093723 17 150 C16.34 150 15.68 150 15 150 C14.731875 150.58265625 14.46375 151.1653125 14.1875 151.765625 C12.98519009 154.02786601 11.66174087 155.80576318 10 157.75 C9.484375 158.36359375 8.96875 158.9771875 8.4375 159.609375 C7 161 7 161 5 161 C5 161.66 5 162.32 5 163 C2.5 164.625 2.5 164.625 0 166 C-1.12744156 162.61767533 -1.12585421 160.06235376 -1.12698364 156.49581909 C-1.12854363 155.8324259 -1.13010362 155.16903271 -1.13171089 154.48553669 C-1.13570563 152.25840174 -1.13253717 150.03133471 -1.12939453 147.80419922 C-1.13074922 146.20934001 -1.13252954 144.61448111 -1.13470459 143.0196228 C-1.13927011 138.68515302 -1.13749316 134.35070699 -1.1343255 130.01623678 C-1.13179825 125.48698963 -1.13414038 120.95774454 -1.13571167 116.42849731 C-1.13753192 108.82390985 -1.13513044 101.21933209 -1.13037109 93.61474609 C-1.12492484 84.81068644 -1.12669434 76.00664992 -1.1321975 67.20259082 C-1.13672808 59.6535306 -1.13737957 52.10447737 -1.13475883 44.55541623 C-1.13319625 40.04219821 -1.13300184 35.5289911 -1.13629532 31.01577377 C-1.13917336 26.77559189 -1.13719959 22.53544001 -1.13140106 18.29526138 C-1.13007327 16.73472392 -1.1304679 15.17418395 -1.13266373 13.61364746 C-1.1353744 11.49246818 -1.13199522 9.37138659 -1.12698364 7.25021362 C-1.12660662 6.06038816 -1.12622959 4.87056271 -1.12584114 3.64468193 C-1 1 -1 1 0 0 Z " fill="#E5B221" transform="translate(345,251)"/>
<path d="M0 0 C2 2 2 2 2.24839699 4.73626435 C2.24725783 6.50310304 2.24725783 6.50310304 2.24609566 8.30563545 C2.24840335 8.96303213 2.25071103 9.62042881 2.25308865 10.2977466 C2.25842347 12.52209368 2.24937603 14.74615686 2.24050903 16.9704895 C2.24138039 18.57263885 2.24313008 20.17478792 2.24568737 21.77693546 C2.25017864 26.19626354 2.2421329 30.61549544 2.23213124 35.03481126 C2.22352456 39.79419349 2.22641492 44.55356994 2.22793579 49.31295776 C2.22898641 57.56447773 2.22269137 65.81596615 2.21146011 74.06747818 C2.19523199 85.99789487 2.18999987 97.92829626 2.18748413 109.85872279 C2.1831028 129.21327827 2.16978183 148.56781694 2.15087891 167.92236328 C2.13253143 186.72770096 2.11836939 205.53303408 2.10986328 224.33837891 C2.10933783 225.49680774 2.10881239 226.65523658 2.10827102 227.84876932 C2.10566101 233.66004767 2.10313358 239.47132605 2.10064721 245.28260446 C2.07990107 293.52174793 2.04466363 341.76087315 2 390 C2.99 390 3.98 390 5 390 C5.0825 390.61875 5.165 391.2375 5.25 391.875 C5.78810733 394.18346804 5.78810733 394.18346804 8 395 C10 396 10 396 10.75 398.125 C10.8325 398.74375 10.915 399.3625 11 400 C11.556875 400.061875 12.11375 400.12375 12.6875 400.1875 C15.94987173 401.33373872 17.68667874 403.49390197 20 406 C13.88853956 406 8.22956189 400.15193691 3.98046875 396.05078125 C-0.55399869 390.96467543 -1.12527584 387.34628009 -1.12304783 380.51073837 C-1.12420167 379.8577875 -1.12535552 379.20483663 -1.12654433 378.53209937 C-1.12920001 376.3349931 -1.12469744 374.13795949 -1.12025452 371.94085693 C-1.12069043 370.3534812 -1.12156572 368.76610553 -1.12284368 367.17873025 C-1.12508464 362.80955414 -1.12107278 358.44040245 -1.11606562 354.07122946 C-1.11175561 349.36232598 -1.11320794 344.65342393 -1.1139679 339.94451904 C-1.11449278 331.7836245 -1.11134967 323.62273794 -1.10573006 315.4618454 C-1.09761027 303.66249842 -1.09499934 291.86315531 -1.09374207 280.06380585 C-1.0915523 260.92111577 -1.08489426 241.77842995 -1.07543945 222.63574219 C-1.06626339 204.03808615 -1.0591835 185.44043128 -1.05493164 166.84277344 C-1.05453756 165.12384033 -1.05453756 165.12384033 -1.05413551 163.37018129 C-1.05283049 157.62138048 -1.05156678 151.87257965 -1.05032361 146.12377882 C-1.03995335 98.4158496 -1.02233708 50.70792501 -1 3 C-1.74765625 3.31195313 -2.4953125 3.62390625 -3.265625 3.9453125 C-4.25046875 4.33460937 -5.2353125 4.72390625 -6.25 5.125 C-7.22453125 5.51945312 -8.1990625 5.91390625 -9.203125 6.3203125 C-12 7 -12 7 -14.359375 6.1171875 C-14.90078125 5.74851562 -15.4421875 5.37984375 -16 5 C-14.35 5 -12.7 5 -11 5 C-11 4.34 -11 3.68 -11 3 C-10.06027344 2.80083984 -10.06027344 2.80083984 -9.1015625 2.59765625 C-8.28429687 2.42105469 -7.46703125 2.24445313 -6.625 2.0625 C-5.40683594 1.80146484 -5.40683594 1.80146484 -4.1640625 1.53515625 C-1.970537 1.07669307 -1.970537 1.07669307 0 0 Z " fill="#A8862E" transform="translate(101,91)"/>
<path d="M0 0 C0.66 0 1.32 0 2 0 C2.33 152.46 2.66 304.92 3 462 C5.64 462.66 8.28 463.32 11 464 C11 464.33 11 464.66 11 465 C9.54176788 465.0270043 8.08339325 465.04639787 6.625 465.0625 C5.81289062 465.07410156 5.00078125 465.08570313 4.1640625 465.09765625 C2 465 2 465 0 464 C0 310.88 0 157.76 0 0 Z " fill="#C09E3A" transform="translate(209,63)"/>
<path d="M0 0 C4.875 3.625 4.875 3.625 6 7 C6.14852074 8.63337489 6.24776979 10.27147966 6.31640625 11.91015625 C6.35830078 12.90208984 6.40019531 13.89402344 6.44335938 14.91601562 C6.48267578 15.95435547 6.52199219 16.99269531 6.5625 18.0625 C6.60568359 19.04283203 6.64886719 20.02316406 6.69335938 21.03320312 C6.93204126 26.97751863 7.01828434 32.91084435 6.99609375 38.859375 C6.94797943 52.63701794 7.25926748 66.41251923 7.5 80.1875 C7.57227269 84.3346452 7.64405329 88.48179721 7.71398926 92.62898254 C7.75729322 95.18913312 7.80171911 97.74926508 7.84753418 100.30937195 C7.95127782 106.43455203 8.00436277 112.55480115 7.984375 118.6809082 C7.97482747 124.96838547 8.17120231 131.22082628 8.46875 137.5 C9.18865012 154.44001196 9.30022393 171.38735318 9.47252274 188.33971405 C9.55691525 196.51040399 9.65135365 204.68098708 9.74609375 212.8515625 C9.75633009 213.74269367 9.76656643 214.63382484 9.77711296 215.55195999 C9.93176979 228.8949561 10.17232819 242.23347649 10.49490356 255.57354736 C11.31854444 289.70834868 11.09150246 323.85775657 11 358 C10.67 358 10.34 358 10 358 C8.48385879 325.08642923 7.78609591 292.27761823 7.97397518 259.33395863 C7.98985389 256.49797253 8.00283953 253.66197527 8.01599312 250.82597542 C8.02712799 248.85843695 8.04462151 246.89093775 8.0622406 244.92344666 C8.06869095 243.75777664 8.0751413 242.59210663 8.08178711 241.39111328 C8.09004013 240.36897736 8.09829315 239.34684143 8.10679626 238.29373169 C8.25964928 236.03516452 8.25964928 236.03516452 7 235 C6.88034546 232.5680166 6.82457818 230.16312886 6.81054688 227.72973633 C6.80225357 226.96869598 6.79396027 226.20765564 6.78541565 225.42355347 C6.76797359 223.76478503 6.75281827 222.10599139 6.73963928 220.44718361 C6.71865393 217.82000356 6.6916237 215.19294846 6.66296387 212.56584167 C6.60315632 206.98144248 6.55111848 201.39698456 6.5 195.8125 C6.44072517 189.35917831 6.37826973 182.90591683 6.30812073 176.45270348 C6.28162015 173.86813146 6.26075413 171.28355331 6.2401123 168.69892883 C6.22349749 167.10502848 6.20662462 165.51113078 6.18945312 163.91723633 C6.18526871 163.20167068 6.18108429 162.48610504 6.17677307 161.74885559 C6.14067682 158.84372835 6.01393788 156.07763878 5.5 153.21482849 C4.74608481 148.36741246 4.82977422 143.54424605 4.81054688 138.64550781 C4.80225357 137.50977325 4.79396027 136.3740387 4.78541565 135.20388794 C4.76804559 132.74199041 4.75287052 130.28007663 4.73963928 127.81815338 C4.71855319 123.91671018 4.69153293 120.01534776 4.66296387 116.11395264 C4.60300953 107.82600251 4.55114575 99.53800843 4.5 91.25 C4.44073218 81.65750148 4.37822931 72.06504406 4.30812073 62.4726181 C4.28166612 58.63843571 4.2607769 54.80424906 4.2401123 50.97003174 C4.22349685 48.60404268 4.20662393 46.23805541 4.18945312 43.87207031 C4.1831765 42.28505814 4.1831765 42.28505814 4.17677307 40.66598511 C4.12429696 34.38956321 3.74677264 28.23264627 3 22 C2.67 22 2.34 22 2 22 C1.90234375 15.84765625 1.90234375 15.84765625 2 14 C2.33 13.67 2.66 13.34 3 13 C2.97366836 10.99334886 2.97366836 10.99334886 2.6875 8.6875 C2.60886719 7.90761719 2.53023437 7.12773437 2.44921875 6.32421875 C1.98413721 3.91792729 1.19341444 2.12866168 0 0 Z " fill="#B08F32" transform="translate(248,1)"/>
<path d="M0 0 C0.66 0.33 1.32 0.66 2 1 C1.67 111.55 1.34 222.1 1 336 C0.01 336 -0.98 336 -2 336 C-2 335.34 -2 334.68 -2 334 C-1.34 334 -0.68 334 0 334 C-0.24357144 332.1863155 -0.24357144 332.1863155 -0.49206352 330.33599091 C-1.17931911 324.101068 -1.13831347 317.89045617 -1.12698364 311.62414551 C-1.12813746 310.28065496 -1.12972673 308.93716472 -1.13171089 307.59367514 C-1.13586801 303.92182133 -1.13382997 300.24999366 -1.13072467 296.57813978 C-1.12845619 292.61095983 -1.13195727 288.64378429 -1.13470459 284.67660522 C-1.13914479 276.91502648 -1.13819388 269.15345742 -1.13529195 261.39187831 C-1.13303235 255.08727577 -1.13272781 248.78267595 -1.13381577 242.47807312 C-1.133969 241.58036421 -1.13412223 240.6826553 -1.13428011 239.75774309 C-1.13459983 237.93409463 -1.13492404 236.11044616 -1.1352527 234.2867977 C-1.13810203 217.20060301 -1.13482836 200.11441369 -1.12945233 183.02821988 C-1.12497868 168.35507359 -1.1257659 153.68193521 -1.13037109 139.00878906 C-1.13571599 121.97076903 -1.13783382 104.9327537 -1.13475883 87.89473295 C-1.13444027 86.08028889 -1.1341259 84.26584482 -1.13381577 82.45140076 C-1.13366149 81.55862463 -1.13350721 80.66584851 -1.13334826 79.74601856 C-1.13248331 73.4420518 -1.13394539 67.13808801 -1.13629532 60.8341217 C-1.1390923 53.16236741 -1.13835696 45.49062336 -1.13301457 37.81887025 C-1.13037712 33.90181266 -1.12937332 29.98477217 -1.13266373 26.06771469 C-1.13616839 21.83178985 -1.13199892 17.59590865 -1.12698364 13.35998535 C-1.12921436 12.10837002 -1.13144509 10.85675469 -1.13374341 9.56721163 C-1.13113566 8.4421507 -1.12852791 7.31708978 -1.12584114 6.1579361 C-1.12567879 5.17895937 -1.12551644 4.19998265 -1.12534916 3.19133997 C-1 1 -1 1 0 0 Z " fill="#BD922F" transform="translate(51,107)"/>
<path d="M0 0 C0.66 0.33 1.32 0.66 2 1 C2.02373032 20.25959775 2.04117042 39.5191924 2.05181217 58.77880192 C2.05689234 67.72843489 2.06379657 76.67805852 2.07543945 85.62768555 C2.12877205 127.43151619 2.00815316 169.2059445 1 211 C0.67 211 0.34 211 0 211 C-0.20852341 195.52106999 -0.39407027 180.04191816 -0.5625 164.5625 C-0.57523327 163.39339333 -0.58796654 162.22428665 -0.60108566 161.0197525 C-1.01250352 122.63211067 -0.98519808 84.26237947 -0.5625 45.875 C-0.54968616 44.71016712 -0.53687233 43.54533424 -0.5236702 42.3452034 C-0.36680402 28.2299004 -0.19274394 14.11485764 0 0 Z " fill="#DFB237" transform="translate(415,101)"/>
<path d="M0 0 C1.69752187 0.25245197 3.38471545 0.57645775 5.0625 0.9375 C5.98160156 1.13214844 6.90070313 1.32679688 7.84765625 1.52734375 C8.91306641 1.76130859 8.91306641 1.76130859 10 2 C10 2.33 10 2.66 10 3 C7.36 3 4.72 3 2 3 C2.33 54.81 2.66 106.62 3 160 C3.99 160.33 4.98 160.66 6 161 C4.35 162.65 2.7 164.3 1 166 C-1.40436966 162.39344551 -1.24920065 160.78479849 -1.24723816 156.49581909 C-1.24965257 155.8324259 -1.25206699 155.16903271 -1.25455457 154.48553669 C-1.2601991 152.25832465 -1.251523 150.03139846 -1.24291992 147.80419922 C-1.2439926 146.20933962 -1.24593107 144.6144804 -1.24867249 143.0196228 C-1.25352549 138.68512241 -1.24586005 134.35072475 -1.23571944 130.01623678 C-1.22694893 125.48699144 -1.22869618 120.95774941 -1.2290802 116.42849731 C-1.22814327 108.82389604 -1.21945442 101.21933463 -1.20581055 93.61474609 C-1.19007344 84.81068414 -1.18481281 76.00666583 -1.1855461 67.20259082 C-1.18615546 58.74556995 -1.1810592 50.28856337 -1.17275429 41.83154678 C-1.16921509 38.22628798 -1.16739014 34.62103423 -1.16686058 31.01577377 C-1.16585943 26.7755866 -1.1597816 22.53543638 -1.14969444 18.29526138 C-1.14676245 16.73472571 -1.14554548 15.17418578 -1.14612198 13.61364746 C-1.14660925 11.49246297 -1.14099101 9.37138354 -1.13371277 7.25021362 C-1.13203692 6.06038816 -1.13036108 4.87056271 -1.12863445 3.64468193 C-1 1 -1 1 0 0 Z " fill="#E2B640" transform="translate(345,251)"/>
<path d="M0 0 C4.875 3.625 4.875 3.625 6 7 C6.14852074 8.63337489 6.24776979 10.27147966 6.31640625 11.91015625 C6.35830078 12.90208984 6.40019531 13.89402344 6.44335938 14.91601562 C6.48267578 15.95435547 6.52199219 16.99269531 6.5625 18.0625 C6.60568359 19.04283203 6.64886719 20.02316406 6.69335938 21.03320312 C6.93325263 27.00768752 7.01640014 32.97053028 6.9921875 38.94921875 C6.96214656 46.96389233 7.09193358 54.97143224 7.25390625 62.984375 C7.82265166 91.68514035 8.23354091 120.30688752 7 149 C6.67 149 6.34 149 6 149 C4.98212233 129.88263372 4.69908437 110.7716975 4.46777344 91.63262939 C4.4275494 88.38380814 4.38347076 85.13504417 4.33931541 81.88627434 C4.28543885 77.8968641 4.23438159 73.90741932 4.18359375 69.91796875 C4.17351665 69.14460049 4.16343956 68.37123222 4.1530571 67.57442856 C4.05265502 59.72379692 3.98391558 51.87709085 4.04345703 44.02587891 C4.05159927 42.81684402 4.05974152 41.60780914 4.06813049 40.36213684 C4.08720441 38.14221859 4.11501911 35.92235042 4.15342712 33.7026825 C4.16217361 32.73514542 4.1709201 31.76760834 4.17993164 30.77075195 C4.19981895 29.52331963 4.19981895 29.52331963 4.22010803 28.25068665 C3.97537726 25.74822332 3.19722852 24.18811117 2 22 C1.70111003 19.26946281 1.86414099 16.7624666 2 14 C2.33 13.67 2.66 13.34 3 13 C2.97366836 10.99334886 2.97366836 10.99334886 2.6875 8.6875 C2.60886719 7.90761719 2.53023437 7.12773437 2.44921875 6.32421875 C1.98413721 3.91792729 1.19341444 2.12866168 0 0 Z " fill="#D0AB42" transform="translate(248,1)"/>
<path d="M0 0 C0.33 0 0.66 0 1 0 C1.06058594 1.22976563 1.12117188 2.45953125 1.18359375 3.7265625 C1.26805005 5.35938427 1.35269547 6.99219627 1.4375 8.625 C1.47681641 9.43324219 1.51613281 10.24148438 1.55664062 11.07421875 C1.59853516 11.86699219 1.64042969 12.65976562 1.68359375 13.4765625 C1.72025146 14.19924316 1.75690918 14.92192383 1.79467773 15.66650391 C1.96715962 18.06804176 1.96715962 18.06804176 2.5057373 20.67297363 C3.05234069 24.35232043 3.11978797 27.8459454 3.11352539 31.56591797 C3.11367142 32.29831192 3.11381744 33.03070587 3.1139679 33.78529358 C3.1132755 36.18762249 3.10551482 38.58987226 3.09765625 40.9921875 C3.09578968 42.66513018 3.0943669 44.33807342 3.09336853 46.01101685 C3.08956219 50.40040615 3.07974808 54.78976203 3.06866455 59.17913818 C3.05840985 63.66369169 3.05386223 68.14825063 3.04882812 72.6328125 C3.03812403 81.42189029 3.02107035 90.21094098 3 99 C2.67 99 2.34 99 2 99 C0.60105077 65.98412348 -0.3312555 33.04655806 0 0 Z " fill="#B39540" transform="translate(256,260)"/>
<path d="M0 0 C1.1446875 0.1546875 1.1446875 0.1546875 2.3125 0.3125 C0.97503775 4.8776135 -0.87446183 8.50146177 -3.4375 12.5 C-7.1114192 18.30664615 -10.4732261 24.23703532 -13.6875 30.3125 C-14.3475 30.3125 -15.0075 30.3125 -15.6875 30.3125 C-16.3475 31.6325 -17.0075 32.9525 -17.6875 34.3125 C-18.02442785 32.70908445 -18.35691093 31.10473445 -18.6875 29.5 C-18.873125 28.60667969 -19.05875 27.71335937 -19.25 26.79296875 C-19.6875 24.3125 -19.6875 24.3125 -19.6875 21.3125 C-18.0375 21.6425 -16.3875 21.9725 -14.6875 22.3125 C-14.23375 21.6525 -13.78 20.9925 -13.3125 20.3125 C-12.77625 19.6525 -12.24 18.9925 -11.6875 18.3125 C-11.0275 18.3125 -10.3675 18.3125 -9.6875 18.3125 C-9.3575 17.3225 -9.0275 16.3325 -8.6875 15.3125 C-8.0275 15.3125 -7.3675 15.3125 -6.6875 15.3125 C-6.3575 13.6625 -6.0275 12.0125 -5.6875 10.3125 C-5.0275 10.3125 -4.3675 10.3125 -3.6875 10.3125 C-4.079375 9.590625 -4.47125 8.86875 -4.875 8.125 C-5.6875 5.3125 -5.6875 5.3125 -4.625 2.5 C-2.6875 0.3125 -2.6875 0.3125 0 0 Z " fill="#DFAF2A" transform="translate(437.6875,410.6875)"/>
<path d="M0 0 C0.33 0 0.66 0 1 0 C1.17015625 0.91523438 1.3403125 1.83046875 1.515625 2.7734375 C1.75796875 3.96195312 2.0003125 5.15046875 2.25 6.375 C2.48203125 7.55835938 2.7140625 8.74171875 2.953125 9.9609375 C3.69286471 13.10186813 3.69286471 13.10186813 6.109375 14.4140625 C6.73328125 14.60742188 7.3571875 14.80078125 8 15 C8.125 22.75 8.125 22.75 7 25 C6.34 25 5.68 25 5 25 C5 28.96 5 32.92 5 37 C4.67 37 4.34 37 4 37 C0.96017306 24.84069224 -0.42698093 12.52477399 0 0 Z " fill="#D3A72B" transform="translate(0,323)"/>
<path d="M0 0 C4.875 3.625 4.875 3.625 6 7 C9.40567306 42.01152197 9.40567306 42.01152197 4 52 C4.01571045 50.84999512 4.01571045 50.84999512 4.03173828 49.67675781 C4.07332699 46.20120526 4.09933551 42.72570509 4.125 39.25 C4.14175781 38.0434375 4.15851563 36.836875 4.17578125 35.59375 C4.18222656 34.43359375 4.18867188 33.2734375 4.1953125 32.078125 C4.21102295 30.47565918 4.21102295 30.47565918 4.22705078 28.84082031 C3.99911554 25.98893376 3.39982991 24.44671854 2 22 C1.70111003 19.26946281 1.86414099 16.7624666 2 14 C2.33 13.67 2.66 13.34 3 13 C2.97366836 10.99334886 2.97366836 10.99334886 2.6875 8.6875 C2.60886719 7.90761719 2.53023437 7.12773437 2.44921875 6.32421875 C1.98413721 3.91792729 1.19341444 2.12866168 0 0 Z " fill="#BF982F" transform="translate(248,1)"/>
<path d="M0 0 C0.33 0 0.66 0 1 0 C1.33 32.67 1.66 65.34 2 99 C1.01 99 0.02 99 -1 99 C-1 98.34 -1 97.68 -1 97 C-0.34 97 0.32 97 1 97 C0.83734146 95.70268448 0.67468292 94.40536896 0.50709534 93.06874084 C-0.01709841 88.3281142 -0.1351991 83.66563149 -0.11352539 78.90014648 C-0.11367142 78.04051804 -0.11381744 77.18088959 -0.1139679 76.29521179 C-0.11327778 73.48714571 -0.10552811 70.67914808 -0.09765625 67.87109375 C-0.09578886 65.91097551 -0.09436647 63.95085679 -0.09336853 61.99073792 C-0.08956862 56.85666594 -0.07976014 51.72262271 -0.06866455 46.58856201 C-0.05839588 41.33964425 -0.05385926 36.09072181 -0.04882812 30.84179688 C-0.0381354 20.56118536 -0.02108963 10.28059508 0 0 Z " fill="#E7B436" transform="translate(50,344)"/>
<path d="M0 0 C1.99954746 -0.04254356 4.00041636 -0.04080783 6 0 C7 1 7 1 7.12025452 2.79066467 C7.11803391 3.57009933 7.11581329 4.349534 7.11352539 5.15258789 C7.11344986 6.03342545 7.11337433 6.914263 7.11329651 7.8217926 C7.10813522 8.77907761 7.10297394 9.73636261 7.09765625 10.72265625 C7.0962413 11.69786728 7.09482635 12.67307831 7.09336853 13.67784119 C7.08775133 16.80609143 7.07519593 19.93427123 7.0625 23.0625 C7.05748722 25.17773334 7.05292393 27.29296781 7.04882812 29.40820312 C7.03777631 34.60549296 7.02102146 39.80274145 7 45 C3.91356227 41.91356227 4.64134992 38.20240583 4.5859375 34.0546875 C4.56657135 33.1696756 4.5472052 32.2846637 4.5272522 31.37283325 C4.46737277 28.54032084 4.42103787 25.70776797 4.375 22.875 C4.33682789 20.95701332 4.29777662 19.03904393 4.2578125 17.12109375 C4.16166445 12.41420252 4.07766458 7.70723104 4 3 C1.9254644 2.8509288 1.9254644 2.8509288 0 4 C0 2.68 0 1.36 0 0 Z " fill="#AB8B2E" transform="translate(388,116)"/>
<path d="M0 0 C2.31 0 4.62 0 7 0 C7 12.54 7 25.08 7 38 C5.35 38 3.7 38 2 38 C2 37.34 2 36.68 2 36 C2.99 36 3.98 36 5 36 C4.67 24.78 4.34 13.56 4 2 C2.68 1.34 1.36 0.68 0 0 Z " fill="#A8882E" transform="translate(388,199)"/>
<path d="M0 0 C-0.33 0.99 -0.66 1.98 -1 3 C-2.134375 3.12375 -3.26875 3.2475 -4.4375 3.375 C-5.613125 3.58125 -6.78875 3.7875 -8 4 C-8.33 4.66 -8.66 5.32 -9 6 C-13.45430227 7.57210668 -17.28665497 8.22991927 -22 8 C-22 8.66 -22 9.32 -22 10 C-21.34 10.33 -20.68 10.66 -20 11 C-20.99 11 -21.98 11 -23 11 C-23 10.34 -23 9.68 -23 9 C-23.99 9.33 -24.98 9.66 -26 10 C-30.08594833 11.1865126 -33.76342394 11.14865179 -38 11 C-34.41143043 8.98817451 -30.61897246 7.9277568 -26.6796875 6.8359375 C-25.9798172 6.63900299 -25.2799469 6.44206848 -24.55886841 6.23916626 C-23.08520021 5.82546859 -21.61097399 5.41375413 -20.13623047 5.00390625 C-17.87452197 4.37486705 -15.61490722 3.73870157 -13.35546875 3.1015625 C-11.92199332 2.70009812 -10.48840342 2.2990422 -9.0546875 1.8984375 C-8.37759735 1.7078476 -7.7005072 1.51725769 -7.00289917 1.32089233 C-2.2311938 0 -2.2311938 0 0 0 Z " fill="#C39D3C" transform="translate(143,27)"/>
<path d="M0 0 C11.7862462 1.169488 23.67919908 5.66015306 35 9 C35 9.33 35 9.66 35 10 C33.04174127 10.02694851 31.08337774 10.04637218 29.125 10.0625 C27.48917969 10.07990234 27.48917969 10.07990234 25.8203125 10.09765625 C23 10 23 10 21 9 C21 8.34 21 7.68 21 7 C19.35 7.33 17.7 7.66 16 8 C16 7.34 16 6.68 16 6 C15.45472656 5.87882812 14.90945313 5.75765625 14.34765625 5.6328125 C8.8984375 4.421875 3.44921875 3.2109375 -2 2 C-1.34 1.34 -0.68 0.68 0 0 Z " fill="#BD9B37" transform="translate(330,19)"/>
<path d="M0 0 C0.33 0 0.66 0 1 0 C1.8483173 14.78482197 2.1279036 29.50537158 2.0625 44.3125 C2.05746455 46.33658741 2.05290533 48.36067606 2.04882812 50.38476562 C2.03800835 55.25654217 2.02086194 60.12825654 2 65 C1.67 65 1.34 65 1 65 C0.97494385 63.78417236 0.9498877 62.56834473 0.92407227 61.31567383 C0.82975811 56.79620183 0.72959631 52.27687492 0.62768555 47.75756836 C0.58442742 45.80317585 0.54274602 43.84874778 0.50268555 41.89428711 C0.44476164 39.08175955 0.38113127 36.26940952 0.31640625 33.45703125 C0.29969376 32.58601273 0.28298126 31.7149942 0.26576233 30.81758118 C0.16660009 26.73841072 -0.14053142 22.99901495 -1 19 C-1.01455576 17.45136521 -0.9735476 15.90127747 -0.87890625 14.35546875 C-0.80639648 13.09379883 -0.80639648 13.09379883 -0.73242188 11.80664062 C-0.67634766 10.94232422 -0.62027344 10.07800781 -0.5625 9.1875 C-0.51029297 8.30384766 -0.45808594 7.42019531 -0.40429688 6.50976562 C-0.27525381 4.33949592 -0.13840044 2.16969307 0 0 Z " fill="#B54812" transform="translate(256,213)"/>
<path d="M0 0 C0.33 0 0.66 0 1 0 C1.33 21.45 1.66 42.9 2 65 C1.01 65.495 1.01 65.495 0 66 C-1.10181039 62.69456884 -1.08420432 60.35404043 -1.02172852 56.8762207 C-1.00163223 55.61513992 -0.98153595 54.35405914 -0.96083069 53.05476379 C-0.93363438 51.67843406 -0.90632354 50.30210659 -0.87890625 48.92578125 C-0.85459998 47.51760119 -0.83075667 46.10941308 -0.80735779 44.70121765 C-0.74456724 40.99725147 -0.67548645 37.29342824 -0.60510254 33.58959961 C-0.5343736 29.80914818 -0.46958394 26.0285955 -0.40429688 22.24804688 C-0.27534939 14.83191926 -0.1397576 7.41593261 0 0 Z " fill="#9D803F" transform="translate(345,351)"/>
<path d="M0 0 C0.33 0 0.66 0 1 0 C1.06058594 1.22976563 1.12117188 2.45953125 1.18359375 3.7265625 C1.26805005 5.35938427 1.35269547 6.99219627 1.4375 8.625 C1.47681641 9.43324219 1.51613281 10.24148438 1.55664062 11.07421875 C1.73428948 14.43588172 1.9349427 17.65664204 2.5625 20.96875 C3.18926208 25.31131586 2.84850071 29.50937994 2.5625 33.875 C2.51029297 34.75414062 2.45808594 35.63328125 2.40429688 36.5390625 C2.27552439 38.69307499 2.13858537 40.84659659 2 43 C1.01 43.495 1.01 43.495 0 44 C0 29.48 0 14.96 0 0 Z " fill="#C9A335" transform="translate(256,260)"/>
<path d="M0 0 C0.66 0 1.32 0 2 0 C0.87656415 3.37030756 0.1035064 3.96835734 -2.640625 6.06640625 C-3.38183594 6.63423828 -4.12304688 7.20207031 -4.88671875 7.78710938 C-5.66660156 8.37298828 -6.44648438 8.95886719 -7.25 9.5625 C-8.39662109 10.44711914 -8.39662109 10.44711914 -9.56640625 11.34960938 C-13.29731333 14.18161915 -16.56892575 16.38400094 -21 18 C-19.69955017 15.09899654 -18.29101554 13.18687847 -16 11 C-16 10.67 -16 10.34 -16 10 C-14.02 10 -12.04 10 -10 10 C-9.67 8.35 -9.34 6.7 -9 5 C-8.38125 4.896875 -7.7625 4.79375 -7.125 4.6875 C-4.63473516 4.12474627 -4.63473516 4.12474627 -3 1 C-2.01 1.33 -1.02 1.66 0 2 C0 1.34 0 0.68 0 0 Z " fill="#AD8F34" transform="translate(384,483)"/>
<path d="M0 0 C0.99 0 1.98 0 3 0 C1.54997977 4.10839064 -0.3979134 7.50344613 -3 11 C-3.66 11 -4.32 11 -5 11 C-5 11.66 -5 12.32 -5 13 C-7.3125 15.1875 -7.3125 15.1875 -10 17 C-10.99 16.67 -11.98 16.34 -13 16 C-13.33 15.01 -13.66 14.02 -14 13 C-11.69 12.34 -9.38 11.68 -7 11 C-7.33 10.01 -7.66 9.02 -8 8 C-7.34 8 -6.68 8 -6 8 C-6 7.34 -6 6.68 -6 6 C-4.35 6 -2.7 6 -1 6 C-0.67 4.02 -0.34 2.04 0 0 Z " fill="#D0A630" transform="translate(314,430)"/>
<path d="M0 0 C0.66 0 1.32 0 2 0 C2 0.66 2 1.32 2 2 C2.99 2 3.98 2 5 2 C5.0825 2.61875 5.165 3.2375 5.25 3.875 C5.78810733 6.18346804 5.78810733 6.18346804 8 7 C10 8 10 8 10.75 10.125 C10.87375 11.053125 10.87375 11.053125 11 12 C11.556875 12.061875 12.11375 12.12375 12.6875 12.1875 C15.94987173 13.33373872 17.68667874 15.49390197 20 18 C13.87424844 18 8.20161402 12.12627362 3.9453125 8.015625 C0 3.59838517 0 3.59838517 0 0 Z " fill="#B49433" transform="translate(101,479)"/>
<path d="M0 0 C0.33 0 0.66 0 1 0 C1.33088893 6.55650281 1.02241178 11.83850492 -1.33203125 17.984375 C-2.23068856 20.69611285 -2.21756769 23.17162002 -2 26 C-2.99 26.33 -3.98 26.66 -5 27 C-5.73323796 29.01508358 -5.73323796 29.01508358 -6 31 C-6.66 31 -7.32 31 -8 31 C-7.09358103 26.48923267 -6.09358455 22.09344511 -4.5625 17.75 C-2.5461643 11.95817857 -1.30422104 5.98461713 0 0 Z " fill="#C9A53A" transform="translate(410,336)"/>
<path d="M0 0 C1.1446875 0.1546875 1.1446875 0.1546875 2.3125 0.3125 C0.93644084 5.07801013 -1.15528066 9.0373553 -3.8125 13.1875 C-4.18503906 13.78046875 -4.55757813 14.3734375 -4.94140625 14.984375 C-5.85115 16.4306343 -6.76853798 17.87208046 -7.6875 19.3125 C-8.0175 17.9925 -8.3475 16.6725 -8.6875 15.3125 C-8.0275 15.3125 -7.3675 15.3125 -6.6875 15.3125 C-6.3575 13.6625 -6.0275 12.0125 -5.6875 10.3125 C-5.0275 10.3125 -4.3675 10.3125 -3.6875 10.3125 C-4.079375 9.590625 -4.47125 8.86875 -4.875 8.125 C-5.6875 5.3125 -5.6875 5.3125 -4.625 2.5 C-2.6875 0.3125 -2.6875 0.3125 0 0 Z " fill="#C0992C" transform="translate(437.6875,410.6875)"/>
<path d="M0 0 C0 0.66 0 1.32 0 2 C0.66 2 1.32 2 2 2 C2 2.66 2 3.32 2 4 C4.475 4.495 4.475 4.495 7 5 C4.85149617 6.28488954 3.51830907 7.03605301 0.98535156 6.85986328 C0.2940918 6.68181152 -0.39716797 6.50375977 -1.109375 6.3203125 C-1.86347656 6.13339844 -2.61757813 5.94648438 -3.39453125 5.75390625 C-4.56048828 5.44259766 -4.56048828 5.44259766 -5.75 5.125 C-6.54277344 4.92519531 -7.33554687 4.72539062 -8.15234375 4.51953125 C-10.10477355 4.02554299 -12.05285391 3.51442069 -14 3 C-14 2.34 -14 1.68 -14 1 C-12.14375 1.0309375 -12.14375 1.0309375 -10.25 1.0625 C-6.71157356 1.06875164 -3.45338044 0 0 0 Z " fill="#C3A133" transform="translate(341,218)"/>
<path d="M0 0 C9.02917477 2.23180355 18.04180231 4.49474132 27 7 C27 7.33 27 7.66 27 8 C20.33293547 8.32030381 15.97194873 8.18503932 10 5 C7.91511064 4.8379353 7.91511064 4.8379353 5.75 4.9375 C4.5125 4.958125 3.275 4.97875 2 5 C1.34 4.34 0.68 3.68 0 3 C0 2.01 0 1.02 0 0 Z " fill="#AE9132" transform="translate(303,11)"/>
<path d="M0 0 C0.33 0 0.66 0 1 0 C1.33 12.21 1.66 24.42 2 37 C4.64 37.66 7.28 38.32 10 39 C10 39.33 10 39.66 10 40 C8.52093108 40.02689216 7.04172517 40.04634621 5.5625 40.0625 C4.73878906 40.07410156 3.91507813 40.08570313 3.06640625 40.09765625 C1 40 1 40 0 39 C-0.08865208 36.1156618 -0.11521296 33.25537842 -0.09765625 30.37109375 C-0.0962413 29.50686295 -0.09482635 28.64263214 -0.09336853 27.75221252 C-0.08775239 24.98060708 -0.07519719 22.2090812 -0.0625 19.4375 C-0.05748708 17.5631522 -0.05292381 15.68880315 -0.04882812 13.81445312 C-0.03777772 9.20960456 -0.0205023 4.60481579 0 0 Z " fill="#D6AE3B" transform="translate(210,488)"/>
<path d="M0 0 C0 0.66 0 1.32 0 2 C-1.29550781 2.20109375 -1.29550781 2.20109375 -2.6171875 2.40625 C-5.83695935 2.97138317 -8.95891593 3.69025983 -12.125 4.5 C-13.13820313 4.7578125 -14.15140625 5.015625 -15.1953125 5.28125 C-16.87035892 5.71050981 -18.53749127 6.17723727 -20.1796875 6.71875 C-22 7 -22 7 -25 5 C-21.39963863 3.96540315 -17.79421232 2.9497136 -14.1875 1.9375 C-13.16333984 1.64294922 -12.13917969 1.34839844 -11.08398438 1.04492188 C-10.10107422 0.77099609 -9.11816406 0.49707031 -8.10546875 0.21484375 C-7.19949951 -0.04176025 -6.29353027 -0.29836426 -5.36010742 -0.56274414 C-3 -1 -3 -1 0 0 Z " fill="#C09D32" transform="translate(60,52)"/>
<path d="M0 0 C2 3 2 3 1.8984375 5.20703125 C0.34612649 12.93383307 -1.73156766 20.45691187 -4 28 C-4.33 28 -4.66 28 -5 28 C-5.18417496 22.65892608 -4.74689628 19.09095488 -3 14 C-2.42782867 11.54858704 -1.88655704 9.08977483 -1.375 6.625 C-1.11460937 5.37976563 -0.85421875 4.13453125 -0.5859375 2.8515625 C-0.29589844 1.44003906 -0.29589844 1.44003906 0 0 Z " fill="#B89838" transform="translate(461,343)"/>
<path d="M0 0 C3.3 0 6.6 0 10 0 C7.32141077 2.67858923 4.37045039 3.2352756 0.8125 4.1875 C0.16474609 4.37763672 -0.48300781 4.56777344 -1.15039062 4.76367188 C-5.89874083 6.04918926 -9.2822431 5.96068461 -14 5 C-14 4.67 -14 4.34 -14 4 C-9.15758367 2.66416101 -5.06562383 1.74671881 0 2 C0 1.34 0 0.68 0 0 Z " fill="#C5A137" transform="translate(314,519)"/>
<path d="M0 0 C0.33 0 0.66 0 1 0 C1.14573409 3.87358108 1.28794784 7.74727578 1.42724609 11.62109375 C1.4979223 13.56777274 1.57118759 15.51435719 1.64453125 17.4609375 C1.94882047 25.98103571 2.0594191 34.47500977 2 43 C1.01 43 0.02 43 -1 43 C-1 42.34 -1 41.68 -1 41 C-0.34 41 0.32 41 1 41 C0.83628906 39.85660156 0.67257813 38.71320313 0.50390625 37.53515625 C-0.31152649 30.19626156 -0.10563484 22.81030137 -0.0625 15.4375 C-0.0574746 13.93685045 -0.05291353 12.43619928 -0.04882812 10.93554688 C-0.03790576 7.29033023 -0.02069856 3.64517578 0 0 Z " fill="#DDB752" transform="translate(50,400)"/>
<path d="M0 0 C1.69752187 0.25245197 3.38471545 0.57645775 5.0625 0.9375 C5.98160156 1.13214844 6.90070313 1.32679688 7.84765625 1.52734375 C8.91306641 1.76130859 8.91306641 1.76130859 10 2 C10 2.33 10 2.66 10 3 C7.36 3 4.72 3 2 3 C1.67 12.24 1.34 21.48 1 31 C0.67 31 0.34 31 0 31 C-0.16727437 26.74607233 -0.32786758 22.49196191 -0.48217773 18.23754883 C-0.53566237 16.78923699 -0.59099659 15.34099225 -0.64819336 13.89282227 C-0.72992512 11.81541418 -0.80507768 9.7378583 -0.87890625 7.66015625 C-0.9260376 6.40855713 -0.97316895 5.15695801 -1.02172852 3.86743164 C-1 1 -1 1 0 0 Z " fill="#9E843B" transform="translate(345,251)"/>
<path d="M0 0 C1 4 1 4 -0.109375 6.140625 C-0.65078125 6.83671875 -1.1921875 7.5328125 -1.75 8.25 C-2.28109375 8.95640625 -2.8121875 9.6628125 -3.359375 10.390625 C-5 12 -5 12 -8 12 C-8.66 11.34 -9.32 10.68 -10 10 C-6.7 6.7 -3.4 3.4 0 0 Z " fill="#CFA42E" transform="translate(365,426)"/>
<path d="M0 0 C2.16874252 0.50603992 3.99967627 0.99983813 6 2 C5.67 3.32 5.34 4.64 5 6 C6.65 6.33 8.3 6.66 10 7 C9.67 7.66 9.34 8.32 9 9 C7.5608866 8.71640113 6.12374482 8.42278601 4.6875 8.125 C3.88699219 7.96257812 3.08648437 7.80015625 2.26171875 7.6328125 C0 7 0 7 -3 5 C-2.34 5 -1.68 5 -1 5 C0.2236068 2.9254644 0.2236068 2.9254644 0 0 Z " fill="#DFAE26" transform="translate(369,82)"/>
<path d="M0 0 C4.88100189 0.73138041 9.60024152 1.84074896 14.375 3.0625 C15.11105469 3.24876953 15.84710938 3.43503906 16.60546875 3.62695312 C18.40419444 4.08247457 20.20217529 4.5409355 22 5 C19 7 19 7 15.56640625 6.609375 C14.22907076 6.33579892 12.89442207 6.04882048 11.5625 5.75 C10.55993164 5.54697266 10.55993164 5.54697266 9.53710938 5.33984375 C6.10153188 4.61118807 3.04336195 3.77464584 0 2 C0 1.34 0 0.68 0 0 Z " fill="#C19A39" transform="translate(279,84)"/>
<path d="M0 0 C-2.7157233 3.73411954 -6.69164599 4.31066336 -11 5 C-15.32838974 5.43581041 -19.65726393 5.74843907 -24 6 C-20.745987 3.830658 -17.99869282 2.9609947 -14.25 1.875 C-13.05890625 1.52179687 -11.8678125 1.16859375 -10.640625 0.8046875 C-6.9720114 -0.00618632 -3.74362434 -0.14398555 0 0 Z " fill="#C19A38" transform="translate(242,0)"/>
<path d="M0 0 C0.78568359 0.04253906 1.57136719 0.08507812 2.38085938 0.12890625 C3.59805664 0.21205078 3.59805664 0.21205078 4.83984375 0.296875 C6.0628418 0.35681641 6.0628418 0.35681641 7.31054688 0.41796875 C13.38832575 0.78752967 13.38832575 0.78752967 16.77734375 3.046875 C13.92311183 3.07405816 11.0691436 3.09380205 8.21484375 3.109375 C7.01504883 3.12194336 7.01504883 3.12194336 5.79101562 3.13476562 C1.00571271 3.15429747 -3.50410676 2.85124518 -8.22265625 2.046875 C-5.30593298 0.37173819 -3.35199457 -0.18607484 0 0 Z " fill="#C89D32" transform="translate(230.22265625,526.953125)"/>
<path d="M0 0 C0.33 0 0.66 0 1 0 C1.66 3.63 2.32 7.26 3 11 C3.66 11 4.32 11 5 11 C6.09658936 14.28976808 5.79953138 15.71303767 5 19 C4.34 19 3.68 19 3 19 C2.29613198 16.96391826 1.61257145 14.92080976 0.9375 12.875 C0.55464844 11.73804688 0.17179688 10.60109375 -0.22265625 9.4296875 C-1.03424784 5.84889646 -0.85479227 3.53744223 0 0 Z " fill="#C6A239" transform="translate(6,357)"/>
<path d="M0 0 C0.66 0.66 1.32 1.32 2 2 C1.63114057 9.24950649 -1.38321252 16.31829992 -4 23 C-4.33 23 -4.66 23 -5 23 C-5.04254356 21.00045254 -5.04080783 18.99958364 -5 17 C-4.67 16.67 -4.34 16.34 -4 16 C-3.63239269 13.67182036 -3.29758419 11.3381615 -3 9 C-2.34 9 -1.68 9 -1 9 C-1.020625 7.700625 -1.04125 6.40125 -1.0625 5.0625 C-1.08399454 3.70834367 -1.07148199 2.35243917 -1 1 C-0.67 0.67 -0.34 0.34 0 0 Z " fill="#B49438" transform="translate(388,342)"/>
<path d="M0 0 C2.31 0.66 4.62 1.32 7 2 C6.67 3.65 6.34 5.3 6 7 C1.87248551 6.39301257 -1.3321148 4.96189209 -5 3 C-4.360625 2.690625 -3.72125 2.38125 -3.0625 2.0625 C-1.06389179 1.1654837 -1.06389179 1.1654837 0 0 Z " fill="#CEA22E" transform="translate(126,496)"/>
<path d="M0 0 C-0.33 0.99 -0.66 1.98 -1 3 C-3.5625 4.1875 -3.5625 4.1875 -6 5 C-6 4.01 -6 3.02 -6 2 C-6.66 2 -7.32 2 -8 2 C-8 2.66 -8 3.32 -8 4 C-10.31 3.67 -12.62 3.34 -15 3 C-9.94142473 0.27615178 -5.71021045 -1.67947366 0 0 Z " fill="#D7AC2C" transform="translate(15,65)"/>
<path d="M0 0 C0.33 1.32 0.66 2.64 1 4 C0.01 5.485 0.01 5.485 -1 7 C-0.01 8.485 -0.01 8.485 1 10 C-2.80504787 11.79682816 -3.70600835 12.07349791 -8 11 C-5.36 7.37 -2.72 3.74 0 0 Z " fill="#C09832" transform="translate(383,403)"/>
<path d="M0 0 C1.5625 1.8125 1.5625 1.8125 3 4 C2 7 2 7 0 8 C-1.12224855 9.88013106 -1.12224855 9.88013106 -2.125 12.0625 C-2.47820312 12.79597656 -2.83140625 13.52945312 -3.1953125 14.28515625 C-3.59363281 15.13400391 -3.59363281 15.13400391 -4 16 C-4.66 16 -5.32 16 -6 16 C-4.27933894 10.55123997 -2.15294651 5.28830549 0 0 Z " fill="#A68732" transform="translate(401,367)"/>
<path d="M0 0 C0.66 0 1.32 0 2 0 C0.58036591 5.67853635 -2.39363961 9.53174216 -6 14 C-6.66 13.34 -7.32 12.68 -8 12 C-7.625 8.875 -7.625 8.875 -7 6 C-5.02 6.495 -5.02 6.495 -3 7 C-3 6.34 -3 5.68 -3 5 C-2.34 5 -1.68 5 -1 5 C-0.67 3.35 -0.34 1.7 0 0 Z " fill="#B4932F" transform="translate(373,380)"/>
<path d="M0 0 C-2.70879335 1.35439668 -5.00933268 1.06501451 -8 1 C-8 1.66 -8 2.32 -8 3 C-7.34 3.33 -6.68 3.66 -6 4 C-6.99 4 -7.98 4 -9 4 C-9 3.34 -9 2.68 -9 2 C-9.99 2.33 -10.98 2.66 -12 3 C-16.08594833 4.1865126 -19.76342394 4.14865179 -24 4 C-20.09272779 1.6139591 -15.87691822 1.07300793 -11.4375 0.3125 C-10.66986328 0.17005859 -9.90222656 0.02761719 -9.11132812 -0.11914062 C-3.37376786 -1.12458929 -3.37376786 -1.12458929 0 0 Z " fill="#CAA333" transform="translate(129,34)"/>
<path d="M0 0 C0.33 0 0.66 0 1 0 C1.33 8.58 1.66 17.16 2 26 C2.99 26.33 3.98 26.66 5 27 C4.01 27.99 3.02 28.98 2 30 C0 28 0 28 -0.22705078 25.20263672 C-0.21134033 23.45877686 -0.21134033 23.45877686 -0.1953125 21.6796875 C-0.18886719 20.42285156 -0.18242187 19.16601562 -0.17578125 17.87109375 C-0.15902344 16.55238281 -0.14226562 15.23367188 -0.125 13.875 C-0.11496983 12.53516279 -0.10584404 11.19531848 -0.09765625 9.85546875 C-0.07402075 6.57013427 -0.04107234 3.28515535 0 0 Z " fill="#D2AA3C" transform="translate(346,385)"/>
<path d="M0 0 C-2.24346593 2.48716511 -4.40378156 3.90563226 -7.4375 5.3125 C-8.19933594 5.67988281 -8.96117187 6.04726563 -9.74609375 6.42578125 C-12 7 -12 7 -14.28515625 6.10546875 C-15.13400391 5.55826172 -15.13400391 5.55826172 -16 5 C-13.36 4.67 -10.72 4.34 -8 4 C-8.33 2.68 -8.66 1.36 -9 0 C-5.52176885 -1.15941038 -3.54104422 -0.70820884 0 0 Z " fill="#B79A2F" transform="translate(352,507)"/>
<path d="M0 0 C-1.40301147 3.18673962 -3.07765071 5.32221406 -5.5625 7.75 C-6.49255859 8.67039062 -6.49255859 8.67039062 -7.44140625 9.609375 C-9 11 -9 11 -10 11 C-10 9.35 -10 7.7 -10 6 C-8.35 5.67 -6.7 5.34 -5 5 C-5 3.68 -5 2.36 -5 1 C-2 0 -2 0 0 0 Z " fill="#C6A238" transform="translate(400,469)"/>
<path d="M0 0 C0.33 0 0.66 0 1 0 C2.80317693 5.29683222 3.77703544 10.38934703 3 16 C2.34 16.66 1.68 17.32 1 18 C-0.32594359 12.03325384 -0.0884587 6.07416385 0 0 Z " fill="#C39A32" transform="translate(0,323)"/>
<path d="M0 0 C5.9129304 0.64270983 11.34244531 2.19003784 17 4 C17 4.33 17 4.66 17 5 C7.81380417 5.15569823 7.81380417 5.15569823 4 4 C3.67 3.34 3.34 2.68 3 2 C2.01 2 1.02 2 0 2 C0 1.34 0 0.68 0 0 Z " fill="#B29237" transform="translate(386,35)"/>
<path d="M0 0 C0.33 0 0.66 0 1 0 C1.56631283 11.78769664 1.56631283 11.78769664 -2 17 C-2.66 17.33 -3.32 17.66 -4 18 C-2.68 12.06 -1.36 6.12 0 0 Z " fill="#A88B38" transform="translate(410,336)"/>
<path d="M0 0 C0.33 0 0.66 0 1 0 C1.33 8.25 1.66 16.5 2 25 C1.01 24.34 0.02 23.68 -1 23 C-1.2487793 20.66162109 -1.2487793 20.66162109 -1.07421875 17.7734375 C-1.01943359 16.7421875 -0.96464844 15.7109375 -0.90820312 14.6484375 C-0.83537109 13.56820312 -0.76253906 12.48796875 -0.6875 11.375 C-0.62626953 10.28703125 -0.56503906 9.1990625 -0.50195312 8.078125 C-0.34835798 5.38430251 -0.18046592 2.69213428 0 0 Z " fill="#997A28" transform="translate(256,213)"/>
<path d="M0 0 C0.33 1.32 0.66 2.64 1 4 C-2.71888239 3.49287967 -5.73454239 2.88391785 -9 1 C-5.64919071 -1.10976881 -3.77897651 -1.0497157 0 0 Z " fill="#C59E2F" transform="translate(150,508)"/>
<path d="M0 0 C0.33 1.32 0.66 2.64 1 4 C-4.6932495 5.18609365 -8.42567486 4.66251802 -14 3 C-14 2.67 -14 2.34 -14 2 C-9.38 2 -4.76 2 0 2 C0 1.34 0 0.68 0 0 Z " fill="#C6A331" transform="translate(392,231)"/>
<path d="M0 0 C0.66 0.33 1.32 0.66 2 1 C2 1.66 2 2.32 2 3 C3.65 3 5.3 3 7 3 C7 3.66 7 4.32 7 5 C1.88634986 3.9318153 -3.07227969 2.76892524 -8 1 C-4.92477747 -0.86709939 -3.39885889 -1.24624826 0 0 Z " fill="#BB9938" transform="translate(369,156)"/>
<path d="M0 0 C-3.09044125 2.06029417 -5.42945227 2.8223577 -9 3.75 C-10.051875 4.03359375 -11.10375 4.3171875 -12.1875 4.609375 C-15 5 -15 5 -18 3 C-15.66836622 2.32741333 -13.3347961 1.66152556 -11 1 C-10.34 0.79375 -9.68 0.5875 -9 0.375 C-5.99935943 -0.18762011 -3.04286083 -0.05851655 0 0 Z " fill="#B39532" transform="translate(71,102)"/>
<path d="M0 0 C5.50808397 0.59015185 10.64878069 1.56663769 16 3 C16 3.33 16 3.66 16 4 C8.375 5.25 8.375 5.25 5 3 C3.34450469 2.61500109 1.6777567 2.27206865 0 2 C0 1.34 0 0.68 0 0 Z " fill="#B99438" transform="translate(306,92)"/>
<path d="M0 0 C-2.85478326 1.90318884 -4.41941308 2.4619099 -7.6875 3.125 C-8.49574219 3.29257813 -9.30398437 3.46015625 -10.13671875 3.6328125 C-10.75160156 3.75398438 -11.36648437 3.87515625 -12 4 C-12.33 2.68 -12.66 1.36 -13 0 C-4.57142857 -1.28571429 -4.57142857 -1.28571429 0 0 Z " fill="#CDA334" transform="translate(162,76)"/>
<path d="M0 0 C0.99 0 1.98 0 3 0 C1.54997977 4.10839064 -0.3979134 7.50344613 -3 11 C-3.66 11 -4.32 11 -5 11 C-5 9.35 -5 7.7 -5 6 C-3.68 6 -2.36 6 -1 6 C-0.67 4.02 -0.34 2.04 0 0 Z " fill="#A68A30" transform="translate(314,430)"/>
<path d="M0 0 C0.99 0 1.98 0 3 0 C3 1.32 3 2.64 3 4 C3.66 4 4.32 4 5 4 C5 5.32 5 6.64 5 8 C5.66 8.33 6.32 8.66 7 9 C7 10.65 7 12.3 7 14 C3.94998169 10.33997803 0 4.92148529 0 0 Z " fill="#AE8F37" transform="translate(16,392)"/>
<path d="M0 0 C5.75762166 1.08896667 11.39247819 2.29336293 17 4 C17 4.33 17 4.66 17 5 C5.47835991 4.22095672 5.47835991 4.22095672 0 2 C0 1.34 0 0.68 0 0 Z " fill="#B0923B" transform="translate(342,185)"/>
<path d="M0 0 C-0.66 1.65 -1.32 3.3 -2 5 C-4.97 5 -7.94 5 -11 5 C-7.72709962 2.33319229 -4.35126896 0 0 0 Z " fill="#C29C36" transform="translate(310,466)"/>
<path d="M0 0 C0.99 0.33 1.98 0.66 3 1 C2.3125 3.4375 2.3125 3.4375 1 6 C-1.625 6.8125 -1.625 6.8125 -4 7 C-2.92598892 4.08482708 -2.22189824 2.22189824 0 0 Z " fill="#C8A335" transform="translate(372,418)"/>
<path d="M0 0 C-3.71766668 1.23922223 -5.43889537 0.57018942 -9.1875 -0.4375 C-10.27417969 -0.72496094 -11.36085938 -1.01242188 -12.48046875 -1.30859375 C-13.31191406 -1.53675781 -14.14335937 -1.76492187 -15 -2 C-15 -2.33 -15 -2.66 -15 -3 C-8.34225658 -4.40163019 -5.60652078 -3.85448303 0 0 Z " fill="#AD9434" transform="translate(378,232)"/>
<path d="M0 0 C-3.01490557 2.00993705 -5.2149927 2.72623341 -8.6875 3.625 C-10.17830078 4.01558594 -10.17830078 4.01558594 -11.69921875 4.4140625 C-12.45847656 4.60742188 -13.21773438 4.80078125 -14 5 C-14.66 4.34 -15.32 3.68 -16 3 C-14.35 3 -12.7 3 -11 3 C-11 2.34 -11 1.68 -11 1 C-7.27569643 0.30710631 -3.78916254 -0.11144596 0 0 Z " fill="#BC9A3A" transform="translate(101,93)"/>
<path d="M0 0 C1.23593891 3.70781672 0.5678132 4.67510253 -0.9375 8.1875 C-1.31777344 9.08855469 -1.69804687 9.98960937 -2.08984375 10.91796875 C-2.54037109 11.94857422 -2.54037109 11.94857422 -3 13 C-3.66 12.67 -4.32 12.34 -5 12 C-4.67 10.35 -4.34 8.7 -4 7 C-3.34 7 -2.68 7 -2 7 C-2 5.02 -2 3.04 -2 1 C-1.34 0.67 -0.68 0.34 0 0 Z " fill="#A78A34" transform="translate(455,372)"/>
<path d="M0 0 C0.66 0 1.32 0 2 0 C2.72505558 1.42913847 3.42958435 2.86870658 4.125 4.3125 C4.51945312 5.11300781 4.91390625 5.91351563 5.3203125 6.73828125 C5.54460937 7.48464844 5.76890625 8.23101562 6 9 C5.01 10.485 5.01 10.485 4 12 C3.3291288 10.3767313 2.66342971 8.75132422 2 7.125 C1.62875 6.22007813 1.2575 5.31515625 0.875 4.3828125 C0 2 0 2 0 0 Z " fill="#B19131" transform="translate(275,44)"/>
<path d="M0 0 C4.95 0.99 4.95 0.99 10 2 C10 2.66 10 3.32 10 4 C3.9453125 4.9765625 3.9453125 4.9765625 2 5 C1.34 4.34 0.68 3.68 0 3 C0 2.01 0 1.02 0 0 Z " fill="#C39F32" transform="translate(303,11)"/>
<path d="M0 0 C0.66 0 1.32 0 2 0 C2 0.66 2 1.32 2 2 C2.99 2 3.98 2 5 2 C5.33 4.31 5.66 6.62 6 9 C0.42857143 3.85714286 0.42857143 3.85714286 0 0 Z " fill="#BB9B37" transform="translate(101,479)"/>
<path d="M0 0 C0.66 0.33 1.32 0.66 2 1 C-1.01887244 4.48331435 -3.56909529 5.79157144 -8 7 C-6.89300099 3.78970286 -5.98396175 2.99031023 -3 1.1875 C-1.515 0.5996875 -1.515 0.5996875 0 0 Z " fill="#DEB23F" transform="translate(293,474)"/>
<path d="M0 0 C0.66 0 1.32 0 2 0 C0.68938409 4.23429756 -0.94356259 8.07407404 -3 12 C-3.33 12 -3.66 12 -4 12 C-3.53680089 7.27536912 -2.90108294 3.82942948 0 0 Z " fill="#AE8B35" transform="translate(381,365)"/>
<path d="M0 0 C1.19126781 3.57380342 0.7349445 5.50883302 0.0625 9.1875 C-0.13214844 10.27417969 -0.32679688 11.36085938 -0.52734375 12.48046875 C-0.68332031 13.31191406 -0.83929688 14.14335937 -1 15 C-1.33 15 -1.66 15 -2 15 C-2.24900646 13.06494977 -2.47356242 11.12674066 -2.6875 9.1875 C-2.81511719 8.10855469 -2.94273437 7.02960938 -3.07421875 5.91796875 C-3 3 -3 3 -1.51953125 1.11328125 C-1.01808594 0.74589844 -0.51664062 0.37851562 0 0 Z " fill="#9D8026" transform="translate(468,315)"/>
<path d="M0 0 C1.60568666 0.28317926 3.20952047 0.57687791 4.8125 0.875 C6.15248047 1.11863281 6.15248047 1.11863281 7.51953125 1.3671875 C10 2 10 2 13 4 C8.07872966 4.16682272 4.49656104 4.24828052 0 2 C0 1.34 0 0.68 0 0 Z " fill="#B19137" transform="translate(415,43)"/>
<path d="M0 0 C0 0.66 0 1.32 0 2 C-5.24385089 3.7479503 -9.47322267 4.19392201 -15 4 C-15 3.67 -15 3.34 -15 3 C-12.87562952 2.49733206 -10.75048274 1.9979439 -8.625 1.5 C-7.44164062 1.2215625 -6.25828125 0.943125 -5.0390625 0.65625 C-2 0 -2 0 0 0 Z " fill="#B8993B" transform="translate(172,19)"/>
<path d="M0 0 C1.258125 0.12375 2.51625 0.2475 3.8125 0.375 C4.87404297 0.47941406 4.87404297 0.47941406 5.95703125 0.5859375 C8 1 8 1 11 3 C9.02 3.66 7.04 4.32 5 5 C4.67 4.01 4.34 3.02 4 2 C2.68 2 1.36 2 0 2 C0 1.34 0 0.68 0 0 Z " fill="#C3A234" transform="translate(380,113)"/>
<path d="M0 0 C2.31 0.33 4.62 0.66 7 1 C7.33 1.99 7.66 2.98 8 4 C7.67 4.66 7.34 5.32 7 6 C3.63279613 4.60667426 2.0140476 3.0210714 0 0 Z " fill="#BA9728" transform="translate(280,56)"/>
<path d="M0 0 C5.19209404 -0.21192221 9.126739 0.4087311 14 2 C14 2.33 14 2.66 14 3 C9.545 3.495 9.545 3.495 5 4 C5 3.34 5 2.68 5 2 C3.35 1.67 1.7 1.34 0 1 C0 0.67 0 0.34 0 0 Z " fill="#B69737" transform="translate(439,51)"/>
<path d="M0 0 C-1 2 -1 2 -2.9609375 2.703125 C-4.15589844 2.97382812 -4.15589844 2.97382812 -5.375 3.25 C-6.56222656 3.53617188 -6.56222656 3.53617188 -7.7734375 3.828125 C-10 4 -10 4 -13 2 C-8.46298506 0.54815522 -4.81938524 -0.23509196 0 0 Z " fill="#C5A443" transform="translate(48,55)"/>
<path d="M0 0 C1.98 0 3.96 0 6 0 C3.45543849 2.96865509 0.51005335 4.3619751 -3 6 C-3 5.01 -3 4.02 -3 3 C-2.01 3 -1.02 3 0 3 C0 2.01 0 1.02 0 0 Z " fill="#AE8F30" transform="translate(288,452)"/>
<path d="M0 0 C3.3 0.66 6.6 1.32 10 2 C10 2.33 10 2.66 10 3 C6.7 3 3.4 3 0 3 C0 2.01 0 1.02 0 0 Z " fill="#BA9633" transform="translate(367,192)"/>
<path d="M0 0 C0.66 0 1.32 0 2 0 C2 1.65 2 3.3 2 5 C-1.73487777 4.5020163 -3.81237635 4.12508244 -7 2 C-5.02 2 -3.04 2 -1 2 C-0.67 1.34 -0.34 0.68 0 0 Z " fill="#B79B45" transform="translate(393,162)"/>
<path d="M0 0 C8.03571429 0.80357143 8.03571429 0.80357143 12 3 C10.37581255 3.08090971 8.75048255 3.13914995 7.125 3.1875 C5.76761719 3.23970703 5.76761719 3.23970703 4.3828125 3.29296875 C3.20332031 3.14794922 3.20332031 3.14794922 2 3 C1.34 2.01 0.68 1.02 0 0 Z " fill="#B08C35" transform="translate(341,102)"/>
<path d="M0 0 C3.3 0 6.6 0 10 0 C7.23776722 2.76223278 4.79293383 2.57856291 1 3 C0.67 2.01 0.34 1.02 0 0 Z " fill="#B69530" transform="translate(314,519)"/>
<path d="M0 0 C2.475 0.99 2.475 0.99 5 2 C4.34 3.32 3.68 4.64 3 6 C1.68 5.67 0.36 5.34 -1 5 C-0.34 5 0.32 5 1 5 C0.67 3.35 0.34 1.7 0 0 Z " fill="#D4A631" transform="translate(357,498)"/>
<path d="M0 0 C1.32 0.33 2.64 0.66 4 1 C2.7260411 3.03833424 1.38938077 5.03852126 0 7 C-0.66 7 -1.32 7 -2 7 C-1.34 4.69 -0.68 2.38 0 0 Z " fill="#BA9B33" transform="translate(404,460)"/>
<path d="M0 0 C1.8871875 0.061875 1.8871875 0.061875 3.8125 0.125 C3.4825 0.785 3.1525 1.445 2.8125 2.125 C0.8325 2.125 -1.1475 2.125 -3.1875 2.125 C-3.5175 3.115 -3.8475 4.105 -4.1875 5.125 C-6.1875 4.125 -6.1875 4.125 -7.1875 2.125 C-4.09861478 0.06574319 -3.47814073 -0.1140374 0 0 Z " fill="#B99128" transform="translate(327.1875,457.875)"/>
<path d="M0 0 C0.99 0.33 1.98 0.66 3 1 C2.21718695 2.33855056 1.42348123 3.67073644 0.625 5 C0.18414062 5.7425 -0.25671875 6.485 -0.7109375 7.25 C-1.34902344 8.11625 -1.34902344 8.11625 -2 9 C-2.66 9 -3.32 9 -4 9 C-3.35455571 5.51460083 -1.89865603 2.97180943 0 0 Z " fill="#9B8131" transform="translate(426,432)"/>
<path d="M0 0 C0.33 0.99 0.66 1.98 1 3 C-1.375 6.1875 -1.375 6.1875 -4 9 C-4.33 9 -4.66 9 -5 9 C-5 7.02 -5 5.04 -5 3 C-4.360625 2.690625 -3.72125 2.38125 -3.0625 2.0625 C-1.06389179 1.1654837 -1.06389179 1.1654837 0 0 Z " fill="#B89331" transform="translate(359,400)"/>
<path d="M0 0 C5.02254631 -0.2954439 7.89542386 0.01485372 12 3 C9.18185434 4.40907283 7.82722796 3.50872691 4.875 2.5625 C3.96492188 2.27503906 3.05484375 1.98757812 2.1171875 1.69140625 C1.41851562 1.46324219 0.71984375 1.23507813 0 1 C0 0.67 0 0.34 0 0 Z " fill="#9B832F" transform="translate(339,149)"/>
<path d="M0 0 C6.625 0.75 6.625 0.75 10 3 C6.18510326 4.46726798 3.70988378 3.43336419 0 2 C0 1.34 0 0.68 0 0 Z " fill="#C2A038" transform="translate(369,87)"/>
<path d="M0 0 C0 0.66 0 1.32 0 2 C-3.9813783 3.3271261 -7.85045227 3.06915913 -12 3 C-7.85930434 0.85826087 -4.68855996 -0.12671784 0 0 Z " fill="#B68F3C" transform="translate(194,13)"/>
<path d="M0 0 C1.875 0.25 1.875 0.25 4 1 C5.3125 2.875 5.3125 2.875 6 5 C5.67 5.99 5.34 6.98 5 8 C0 2.25 0 2.25 0 0 Z " fill="#AC9033" transform="translate(36,426)"/>
<path d="M0 0 C0.99 0.33 1.98 0.66 3 1 C1.35 3.64 -0.3 6.28 -2 9 C-2.33 7.68 -2.66 6.36 -3 5 C-2.34 5 -1.68 5 -1 5 C-0.67 3.35 -0.34 1.7 0 0 Z " fill="#B89A3A" transform="translate(432,421)"/>
<path d="M0 0 C-0.33 0.99 -0.66 1.98 -1 3 C-1.66 2.67 -2.32 2.34 -3 2 C-3 2.66 -3 3.32 -3 4 C-5.31 3.67 -7.62 3.34 -10 3 C-6.59538535 1.23899242 -3.90650339 0 0 0 Z " fill="#B4952F" transform="translate(10,65)"/>
<path d="M0 0 C0.99 0.33 1.98 0.66 3 1 C3.6875 3.0625 3.6875 3.0625 4 5 C1.0625 4.625 1.0625 4.625 -2 4 C-2.33 3.34 -2.66 2.68 -3 2 C-2.01 2 -1.02 2 0 2 C0 1.34 0 0.68 0 0 Z " fill="#C39E33" transform="translate(290,60)"/>
<path d="M0 0 C0.6875 1.625 0.6875 1.625 1 4 C-0.4375 7.25 -0.4375 7.25 -2 10 C-2.66 10 -3.32 10 -4 10 C-2.99806563 6.20696275 -2.18975773 3.28463659 0 0 Z " fill="#A08733" transform="translate(281,483)"/>
<path d="M0 0 C0.66 0.33 1.32 0.66 2 1 C0.375 3 0.375 3 -2 5 C-5.25 5.25 -5.25 5.25 -8 5 C-5.45378681 2.99940392 -3.01962385 1.20784954 0 0 Z " fill="#AB8C30" transform="translate(318,461)"/>
<path d="M0 0 C0.33 0 0.66 0 1 0 C1 4.62 1 9.24 1 14 C0.01 14 -0.98 14 -2 14 C-2 13.34 -2 12.68 -2 12 C-1.34 12 -0.68 12 0 12 C0 8.04 0 4.08 0 0 Z " fill="#B19141" transform="translate(51,429)"/>
<path d="M0 0 C1.5625 1.8125 1.5625 1.8125 3 4 C2.67 4.99 2.34 5.98 2 7 C1.01 7.33 0.02 7.66 -1 8 C-0.67 5.36 -0.34 2.72 0 0 Z " fill="#C8A132" transform="translate(401,367)"/>
<path d="M0 0 C0.33 0.99 0.66 1.98 1 3 C-5.0546875 3.1953125 -5.0546875 3.1953125 -7 3 C-7.66 2.34 -8.32 1.68 -9 1 C-2.25 0 -2.25 0 0 0 Z " fill="#E5BB3B" transform="translate(369,226)"/>
<path d="M0 0 C3.3 0 6.6 0 10 0 C6.39338934 1.80330533 3.91606575 2.46599103 0 3 C0 2.01 0 1.02 0 0 Z " fill="#AA852F" transform="translate(163,73)"/>
<path d="M0 0 C3.37503669 1.1858237 5.64722731 2.27573689 8 5 C6.25 5.75 6.25 5.75 4 6 C1.75 4.1875 1.75 4.1875 0 2 C0 1.34 0 0.68 0 0 Z " fill="#C19E39" transform="translate(456,55)"/>
<path d="M0 0 C4.95 0.99 4.95 0.99 10 2 C10 2.33 10 2.66 10 3 C2.25 3.125 2.25 3.125 0 2 C0 1.34 0 0.68 0 0 Z " fill="#BF9B36" transform="translate(363,108)"/>
<path d="M0 0 C-1.36983503 3.16115776 -1.9890638 3.9927092 -5 6 C-5 4.35 -5 2.7 -5 1 C-2 0 -2 0 0 0 Z " fill="#BD9638" transform="translate(400,469)"/>
<path d="M0 0 C0.33 1.32 0.66 2.64 1 4 C0.01 4.66 -0.98 5.32 -2 6 C-2.99 5.67 -3.98 5.34 -5 5 C-3.35 3.35 -1.7 1.7 0 0 Z " fill="#AF8E2E" transform="translate(365,426)"/>
<path d="M0 0 C1.231394 2.46278801 1.07159196 4.2795055 1 7 C0.01 7.33 -0.98 7.66 -2 8 C-2.33 7.01 -2.66 6.02 -3 5 C-1.5625 2.3125 -1.5625 2.3125 0 0 Z " fill="#E6BA2E" transform="translate(365,387)"/>
<path d="M0 0 C0.66 0 1.32 0 2 0 C2.33 1.98 2.66 3.96 3 6 C2.01 6.66 1.02 7.32 0 8 C0 5.36 0 2.72 0 0 Z " fill="#E9B741" transform="translate(411,334)"/>
<path d="M0 0 C4.95 0.99 4.95 0.99 10 2 C9.01 2.66 8.02 3.32 7 4 C3.3125 3.125 3.3125 3.125 0 2 C0 1.34 0 0.68 0 0 Z " fill="#B39833" transform="translate(291,87)"/>
<path d="M0 0 C1.32 0 2.64 0 4 0 C3.67 1.65 3.34 3.3 3 5 C0.525 4.01 0.525 4.01 -2 3 C-1.34 2.67 -0.68 2.34 0 2 C0 1.34 0 0.68 0 0 Z " fill="#DAA831" transform="translate(361,82)"/>
<path d="M0 0 C2.31 0.33 4.62 0.66 7 1 C7.33 1.99 7.66 2.98 8 4 C5.36 3.34 2.72 2.68 0 2 C0 1.34 0 0.68 0 0 Z " fill="#B39234" transform="translate(296,65)"/>
</svg>
